<?xml version="1.0" encoding="UTF-8"?><svg xmlns="http://www.w3.org/2000/svg" xmlns:xlink="http://www.w3.org/1999/xlink" height="354.3" preserveAspectRatio="xMidYMid meet" version="1.0" viewBox="79.5 35.4 266.2 354.3" width="266.2" zoomAndPan="magnify"><g><g id="change1_1"><path d="M 86.863281 114.421875 L 337.421875 114.421875 L 307.132812 389.761719 L 117.148438 389.761719 L 86.863281 114.421875" fill="#fab447"/></g><g id="change2_1"><path d="M 337.421875 81.382812 C 341.980469 81.382812 345.679688 87.542969 345.679688 95.144531 C 345.679688 102.75 341.980469 108.914062 337.421875 108.914062 L 87.78125 108.914062 C 83.214844 108.914062 79.519531 102.75 79.519531 95.144531 C 79.519531 87.542969 83.214844 81.382812 87.78125 81.382812" fill="#351f17"/></g><g id="change3_1"><path d="M 330.078125 76.796875 L 91.449219 76.796875 L 91.449219 58.4375 L 330.078125 58.4375 L 330.078125 76.796875" fill="#482b21"/></g><g id="change4_1"><path d="M 204.566406 78.28125 L 245.867188 78.28125 C 245.867188 78.28125 236.234375 88.605469 239.675781 97.898438 C 239.675781 97.898438 228.316406 114.421875 212.140625 97.898438 C 212.140625 97.898438 218.679688 86.195312 204.566406 78.28125" fill="#fff"/></g><g id="change2_2"><path d="M 210.765625 308.277344 C 173.40625 308.277344 143.113281 278.625 143.113281 242.054688 C 143.113281 205.480469 173.40625 175.832031 210.765625 175.832031 C 248.125 175.832031 278.410156 205.480469 278.410156 242.054688 C 278.410156 278.625 248.125 308.277344 210.765625 308.277344 Z M 210.765625 160.105469 C 165.503906 160.105469 128.8125 196.023438 128.8125 240.335938 C 128.8125 284.640625 165.503906 320.558594 210.765625 320.558594 C 256.023438 320.558594 292.714844 284.640625 292.714844 240.335938 C 292.714844 196.023438 256.023438 160.105469 210.765625 160.105469" fill="#351f17"/></g><g id="change2_3"><path d="M 216.765625 267.554688 C 215.113281 272.339844 208.695312 279.929688 204.324219 277.105469 C 215.019531 270.351562 211.492188 251.660156 207.519531 241.863281 C 202.570312 229.664062 208.625 217.339844 211.925781 203.726562 C 207.6875 221.191406 207.257812 234.496094 213.363281 247.3125 C 216.695312 254.320312 219.835938 258.652344 216.765625 267.554688 Z M 210.765625 198.621094 C 195.707031 198.621094 183.503906 218.066406 183.503906 242.054688 C 183.503906 266.042969 195.707031 285.488281 210.765625 285.488281 C 225.820312 285.488281 238.023438 266.042969 238.023438 242.054688 C 238.023438 218.066406 225.820312 198.621094 210.765625 198.621094" fill="#351f17"/></g><g id="change3_2"><path d="M 101.039062 53.921875 L 318.503906 53.921875 C 318.503906 53.921875 308.5 36.054688 212.597656 35.441406 C 212.597656 35.441406 133.265625 35.441406 101.039062 53.921875" fill="#482b21"/></g></g></svg>