<?xml version="1.0" encoding="UTF-8"?><svg xmlns="http://www.w3.org/2000/svg" xmlns:xlink="http://www.w3.org/1999/xlink" height="123.2" preserveAspectRatio="xMidYMid meet" version="1.0" viewBox="0.0 0.0 122.2 123.2" width="122.2" zoomAndPan="magnify"><g><g id="change1_1"><path d="M91.1,123.2h-60C14,123.2,0,109.2,0,92.1V31.1C0,14,14,0,31.1,0h60c17.1,0,31.1,14,31.1,31.1 v61.1C122.1,109.2,108.2,123.2,91.1,123.2z" fill="#F7986E"/></g><g><defs><path d="M91.1,123.2h-60C14,123.2,0,109.2,0,92.1V31.1C0,14,14,0,31.1,0h60c17.1,0,31.1,14,31.1,31.1v61.1 C122.1,109.2,108.2,123.2,91.1,123.2z" id="a"/></defs><clipPath id="b"><use overflow="visible" xlink:actuate="onLoad" xlink:href="#a" xlink:show="embed" xlink:type="simple" xmlns:xlink="http://www.w3.org/1999/xlink"/></clipPath><g id="change2_1"><path clip-path="url(#b)" d="M30.3,83.5l42.7,43.2h54.3l-1,1v-47L63.1,19c0,0,3.6,8.2,2.9,11.8 s-1.7,7.5-1.7,7.5l-9.5-6.5c0,0,1.5,4.5,0.8,7s-1.3,8.4-1.3,8.4S43.1,47.8,40.5,51c-2.7,3.2-1.5,8.8-1.5,8.8l-7.5,0.8l-4.2,8 L30.3,83.5z" fill="inherit" opacity=".1"/></g></g><g id="change3_1"><path d="M63.5,45.5c-14.8,0-26.9,4.1-26.9,9.1V58c-7,0.7-12.5,6.6-12.5,13.9c0,7.7,6.2,13.9,13.9,13.9 c0.8,0,1.8-0.1,2.6-0.2c4.8,7.6,13.2,12.7,22.8,12.7h0c14.8,0,26.9-12.1,26.9-26.9V54.7C90.4,49.6,78.4,45.5,63.5,45.5z M38.5,81.3c-0.1,0-0.3,0-0.4,0c-5.2,0-9.4-4.2-9.4-9.4c0-4.7,3.4-8.6,7.9-9.3v8.8C36.6,74.9,37.3,78.2,38.5,81.3 C38.5,81.3,38.5,81.3,38.5,81.3z" fill="#F4F9ED"/></g><g id="change4_1"><path d="M88.1,55.5c0,4.6-11.6,8.3-24.7,8.3c-13.1,0-24.5-3.7-24.5-8.3c0-4.6,11.4-8.3,24.5-8.3 C76.5,47.2,88.1,50.9,88.1,55.5z" fill="#C9CEC6"/></g><g><g id="change5_1"><path d="M86,55.2c0,4.1-10.1,7.5-22.5,7.5c-12.4,0-22.5-3.4-22.5-7.5c0-4.1,10.1-7.5,22.5-7.5 C75.9,47.7,86,51,86,55.2z" fill="#83544C"/></g><g id="change6_1"><path d="M86,55.9c0,3.7-10.1,6.7-22.5,6.7c-12.4,0-22.5-3-22.5-6.7c0-3.7,10-6,22.5-6C75.9,49.9,86,52.2,86,55.9z" fill="#9B6246"/></g></g><g fill="#FFF" id="change7_1"><path d="M62.6,18.2c0,0,0.4,0.5,1,1.4c0.6,0.9,1.4,2.3,2,4.1c0.3,0.9,0.6,1.9,0.9,2.9 c0.2,1.1,0.4,2.2,0.5,3.4c0.1,0.6,0,1.2,0,1.8c0,0.6-0.1,1.2-0.1,1.9l-0.1,0.9l-0.2,0.9c-0.1,0.6-0.3,1.3-0.5,1.9 c-0.2,0.6-0.4,1.3-0.6,1.8c-0.2,0.6-0.4,1.1-0.6,1.7c-0.3,1.1-0.6,2.2-0.8,3.3c-0.2,1.1-0.4,2.1-0.5,3.1c-0.1,1-0.1,2-0.1,2.9 c0,0.9,0.1,1.7,0.1,2.4c0.1,0.7,0.2,1.4,0.3,1.9c0.2,1,0.4,1.6,0.4,1.6l-0.1,0c0,0-0.1-0.1-0.3-0.4c-0.2-0.2-0.4-0.6-0.6-1.1 c-0.3-0.5-0.5-1.1-0.8-1.8c-0.1-0.4-0.2-0.8-0.4-1.2c-0.1-0.4-0.2-0.9-0.3-1.3c-0.1-0.5-0.2-1-0.2-1.5c0-0.5-0.1-1-0.1-1.6 c0-1.1,0.1-2.2,0.2-3.4c0.1-0.6,0.2-1.2,0.3-1.8c0.2-0.6,0.3-1.2,0.5-1.8c0.4-1.1,0.7-2.3,1.1-3.4c0.2-0.5,0.3-1.1,0.5-1.7 l0.2-0.8l0.1-0.9c0.1-0.6,0.2-1.1,0.2-1.7c0-0.6,0.1-1.1,0.1-1.7c0.1-2.2-0.2-4.3-0.5-6C63.7,20.4,62.6,18.2,62.6,18.2z" fill="inherit"/><path d="M54.3,30.8c0,0,0.3,0.2,0.6,0.6c0.4,0.4,0.8,1.1,1.2,2c0.2,0.5,0.4,0.9,0.5,1.5 c0.1,0.6,0.3,1.1,0.3,1.8c0.1,0.6,0.1,1.3,0,1.9c0,0.3-0.1,0.7-0.1,1c-0.1,0.3-0.1,0.7-0.2,1c-0.1,0.3-0.2,0.7-0.3,0.9 c-0.1,0.3-0.2,0.6-0.3,0.9c-0.2,0.5-0.3,1-0.4,1.5c-0.3,1-0.4,2-0.5,2.9c-0.1,0.9,0,1.6,0,2.2c0,0.5,0.1,0.9,0.1,0.9l-0.1,0 c0,0-0.3-0.2-0.6-0.7c-0.2-0.2-0.3-0.5-0.5-0.9c-0.2-0.4-0.3-0.8-0.4-1.3c-0.3-1-0.3-2.2-0.2-3.4c0-0.3,0.1-0.6,0.1-0.9 c0.1-0.3,0.2-0.6,0.2-1c0.2-0.6,0.4-1.1,0.6-1.7c0.1-0.3,0.2-0.5,0.2-0.8c0.1-0.3,0.1-0.5,0.2-0.8c0.1-0.5,0.2-1.1,0.2-1.6 c0.1-1.1,0-2.1-0.1-3C54.6,32,54.3,30.8,54.3,30.8z" fill="inherit"/><path d="M72.2,30.8c0,0,0.3,0.2,0.6,0.6c0.4,0.4,0.8,1.1,1.2,2c0.2,0.5,0.4,0.9,0.5,1.5 c0.1,0.6,0.3,1.1,0.3,1.8c0.1,0.6,0.1,1.3,0,1.9c0,0.3-0.1,0.7-0.1,1c-0.1,0.3-0.1,0.7-0.2,1c-0.1,0.3-0.2,0.7-0.3,0.9 c-0.1,0.3-0.2,0.6-0.3,0.9c-0.2,0.5-0.3,1-0.4,1.5c-0.3,1-0.4,2-0.5,2.9c-0.1,0.9,0,1.6,0,2.2c0,0.5,0.1,0.9,0.1,0.9l-0.1,0 c0,0-0.3-0.2-0.6-0.7c-0.2-0.2-0.3-0.5-0.5-0.9c-0.2-0.4-0.3-0.8-0.4-1.3c-0.3-1-0.3-2.2-0.2-3.4c0-0.3,0.1-0.6,0.1-0.9 c0.1-0.3,0.2-0.6,0.2-1c0.2-0.6,0.4-1.1,0.6-1.7c0.1-0.3,0.2-0.5,0.2-0.8c0.1-0.3,0.1-0.5,0.2-0.8c0.1-0.5,0.2-1.1,0.2-1.6 c0.1-1.1,0-2.1-0.1-3C72.6,32,72.2,30.8,72.2,30.8z" fill="inherit"/></g></g></svg>